<svg width="85" height="29" viewBox="0 0 85 29" fill="none" xmlns="http://www.w3.org/2000/svg">
<rect width="85" height="29" rx="2" fill="#B30000"/>
<path d="M18.0288 15.9858C18.0288 15.6421 17.9071 15.3771 17.6636 15.1909C17.4237 15.0047 16.9886 14.8167 16.3584 14.627C15.7282 14.4372 15.2269 14.2259 14.8545 13.9932C14.1419 13.5456 13.7856 12.9619 13.7856 12.2422C13.7856 11.612 14.0417 11.0928 14.5537 10.6846C15.0693 10.2764 15.7371 10.0723 16.5571 10.0723C17.1014 10.0723 17.5866 10.1725 18.0127 10.373C18.4388 10.5736 18.7736 10.86 19.0171 11.2324C19.2606 11.6012 19.3823 12.0112 19.3823 12.4624H18.0288C18.0288 12.0542 17.8999 11.7355 17.6421 11.5063C17.3879 11.2736 17.0226 11.1572 16.5464 11.1572C16.1024 11.1572 15.7568 11.2521 15.5098 11.4419C15.2663 11.6317 15.1445 11.8966 15.1445 12.2368C15.1445 12.5233 15.277 12.7632 15.542 12.9565C15.807 13.1463 16.2438 13.3325 16.8525 13.5151C17.4613 13.6942 17.95 13.9001 18.3188 14.1328C18.6877 14.362 18.958 14.627 19.1299 14.9277C19.3018 15.2249 19.3877 15.5741 19.3877 15.9751C19.3877 16.6268 19.137 17.146 18.6357 17.5327C18.138 17.9159 17.4613 18.1074 16.6055 18.1074C16.0397 18.1074 15.5187 18.0036 15.0425 17.7959C14.5698 17.5846 14.201 17.2946 13.936 16.9258C13.6746 16.557 13.5439 16.1273 13.5439 15.6367H14.9028C14.9028 16.0807 15.0496 16.4245 15.3433 16.668C15.6369 16.9115 16.0576 17.0332 16.6055 17.0332C17.0781 17.0332 17.4326 16.9383 17.6689 16.7485C17.9089 16.5552 18.0288 16.3009 18.0288 15.9858ZM26.3003 10.1797V15.4058C26.3003 16.2365 26.0335 16.8953 25.5 17.3823C24.9701 17.8657 24.2629 18.1074 23.3784 18.1074C22.4832 18.1074 21.7725 17.8693 21.2461 17.3931C20.7197 16.9132 20.4565 16.249 20.4565 15.4004V10.1797H21.8101V15.4111C21.8101 15.9339 21.9425 16.3332 22.2075 16.6089C22.4725 16.8846 22.8628 17.0225 23.3784 17.0225C24.424 17.0225 24.9468 16.471 24.9468 15.3682V10.1797H26.3003ZM27.7559 18V10.1797H30.436C31.3205 10.1797 31.9937 10.3569 32.4556 10.7114C32.9175 11.0659 33.1484 11.5941 33.1484 12.2959C33.1484 12.654 33.0518 12.9762 32.8584 13.2627C32.665 13.5492 32.3822 13.7712 32.0098 13.9287C32.4323 14.0433 32.7581 14.2599 32.9873 14.5786C33.2201 14.8937 33.3364 15.2733 33.3364 15.7173C33.3364 16.4513 33.1001 17.0153 32.6274 17.4092C32.1584 17.8031 31.4852 18 30.6079 18H27.7559ZM29.1147 14.4712V16.915H30.624C31.0501 16.915 31.3831 16.8094 31.623 16.5981C31.863 16.3869 31.9829 16.0933 31.9829 15.7173C31.9829 14.9045 31.5675 14.4891 30.7368 14.4712H29.1147ZM29.1147 13.4722H30.4468C30.8693 13.4722 31.1987 13.3773 31.4351 13.1875C31.675 12.9941 31.7949 12.722 31.7949 12.3711C31.7949 11.9844 31.6839 11.7051 31.4619 11.5332C31.2435 11.3613 30.9015 11.2754 30.436 11.2754H29.1147V13.4722ZM38.7827 15.9858C38.7827 15.6421 38.661 15.3771 38.4175 15.1909C38.1776 15.0047 37.7425 14.8167 37.1123 14.627C36.4821 14.4372 35.9808 14.2259 35.6084 13.9932C34.8958 13.5456 34.5396 12.9619 34.5396 12.2422C34.5396 11.612 34.7956 11.0928 35.3076 10.6846C35.8232 10.2764 36.491 10.0723 37.311 10.0723C37.8553 10.0723 38.3405 10.1725 38.7666 10.373C39.1927 10.5736 39.5275 10.86 39.771 11.2324C40.0145 11.6012 40.1362 12.0112 40.1362 12.4624H38.7827C38.7827 12.0542 38.6538 11.7355 38.396 11.5063C38.1418 11.2736 37.7765 11.1572 37.3003 11.1572C36.8563 11.1572 36.5107 11.2521 36.2637 11.4419C36.0202 11.6317 35.8984 11.8966 35.8984 12.2368C35.8984 12.5233 36.0309 12.7632 36.2959 12.9565C36.5609 13.1463 36.9977 13.3325 37.6064 13.5151C38.2152 13.6942 38.7039 13.9001 39.0728 14.1328C39.4416 14.362 39.7119 14.627 39.8838 14.9277C40.0557 15.2249 40.1416 15.5741 40.1416 15.9751C40.1416 16.6268 39.891 17.146 39.3896 17.5327C38.8919 17.9159 38.2152 18.1074 37.3594 18.1074C36.7936 18.1074 36.2726 18.0036 35.7964 17.7959C35.3237 17.5846 34.9549 17.2946 34.6899 16.9258C34.4285 16.557 34.2979 16.1273 34.2979 15.6367H35.6567C35.6567 16.0807 35.8035 16.4245 36.0972 16.668C36.3908 16.9115 36.8115 17.0332 37.3594 17.0332C37.832 17.0332 38.1865 16.9383 38.4229 16.7485C38.6628 16.5552 38.7827 16.3009 38.7827 15.9858ZM47.3013 15.4541C47.2225 16.2884 46.9146 16.9401 46.3774 17.4092C45.8403 17.8747 45.126 18.1074 44.2344 18.1074C43.6113 18.1074 43.0617 17.9606 42.5854 17.667C42.1128 17.3698 41.7476 16.9491 41.4897 16.4048C41.2319 15.8605 41.0977 15.2285 41.0869 14.5088V13.7783C41.0869 13.0407 41.2176 12.3908 41.479 11.8286C41.7404 11.2664 42.1146 10.8332 42.6016 10.5288C43.0921 10.2244 43.6579 10.0723 44.2988 10.0723C45.1618 10.0723 45.8564 10.3068 46.3828 10.7759C46.9092 11.245 47.2153 11.9074 47.3013 12.7632H45.9478C45.8833 12.201 45.7186 11.7964 45.4536 11.5493C45.1922 11.2987 44.8073 11.1733 44.2988 11.1733C43.708 11.1733 43.2533 11.39 42.9346 11.8232C42.6195 12.2529 42.4583 12.8849 42.4512 13.7192V14.4121C42.4512 15.2572 42.6016 15.9017 42.9023 16.3457C43.2067 16.7897 43.6507 17.0117 44.2344 17.0117C44.7679 17.0117 45.1689 16.8918 45.4375 16.6519C45.7061 16.4119 45.8761 16.0127 45.9478 15.4541H47.3013ZM51.394 14.9868H49.8794V18H48.5205V10.1797H51.2705C52.1729 10.1797 52.8693 10.382 53.3599 10.7866C53.8504 11.1912 54.0957 11.7767 54.0957 12.543C54.0957 13.0658 53.9686 13.5044 53.7144 13.8589C53.4637 14.2098 53.1128 14.4801 52.6616 14.6699L54.418 17.9302V18H52.9624L51.394 14.9868ZM49.8794 13.8965H51.2759C51.7342 13.8965 52.0923 13.7819 52.3501 13.5527C52.6079 13.32 52.7368 13.0031 52.7368 12.6021C52.7368 12.1831 52.6169 11.859 52.377 11.6299C52.1406 11.4007 51.7861 11.2826 51.3135 11.2754H49.8794V13.8965ZM56.8188 18H55.4653V10.1797H56.8188V18ZM58.4893 18V10.1797H61.1694C62.0539 10.1797 62.7271 10.3569 63.189 10.7114C63.6509 11.0659 63.8818 11.5941 63.8818 12.2959C63.8818 12.654 63.7852 12.9762 63.5918 13.2627C63.3984 13.5492 63.1156 13.7712 62.7432 13.9287C63.1657 14.0433 63.4915 14.2599 63.7207 14.5786C63.9535 14.8937 64.0698 15.2733 64.0698 15.7173C64.0698 16.4513 63.8335 17.0153 63.3608 17.4092C62.8918 17.8031 62.2186 18 61.3413 18H58.4893ZM59.8481 14.4712V16.915H61.3574C61.7835 16.915 62.1165 16.8094 62.3564 16.5981C62.5964 16.3869 62.7163 16.0933 62.7163 15.7173C62.7163 14.9045 62.3009 14.4891 61.4702 14.4712H59.8481ZM59.8481 13.4722H61.1802C61.6027 13.4722 61.9321 13.3773 62.1685 13.1875C62.4084 12.9941 62.5283 12.722 62.5283 12.3711C62.5283 11.9844 62.4173 11.7051 62.1953 11.5332C61.9769 11.3613 61.6349 11.2754 61.1694 11.2754H59.8481V13.4722ZM69.9995 14.5088H66.7876V16.915H70.542V18H65.4287V10.1797H70.5044V11.2754H66.7876V13.4346H69.9995V14.5088Z" fill="white"/>
</svg>
